<?xml version="1.0" standalone="no"?>
<!DOCTYPE svg PUBLIC "-//W3C//DTD SVG 20010904//EN"
 "http://www.w3.org/TR/2001/REC-SVG-20010904/DTD/svg10.dtd">
<svg version="1.0" xmlns="http://www.w3.org/2000/svg"
 width="256.000000pt" height="256.000000pt" viewBox="0 0 256.000000 256.000000"
 preserveAspectRatio="xMidYMid meet">
<metadata>
Created by potrace 1.10, written by Peter Selinger 2001-2011
</metadata>
<g transform="translate(0.000000,256.000000) scale(0.100000,-0.100000)"
fill="#000000" stroke="none">
<path d="M1672 2178 c-139 -21 -360 -147 -456 -260 -66 -76 -116 -214 -116
-316 0 -58 9 -90 20 -72 4 7 10 -8 14 -34 4 -25 12 -49 18 -52 8 -5 9 1 4 17
-4 13 -10 50 -13 82 -3 32 -9 60 -13 62 -11 7 33 163 63 222 29 57 103 135
171 183 25 16 47 30 51 30 3 0 23 11 43 25 57 39 62 35 55 -46 -5 -60 -3 -74
14 -97 l20 -27 -64 -80 c-36 -44 -68 -80 -71 -80 -4 0 -8 10 -10 23 -2 12 -8
22 -14 22 -10 0 -5 66 9 109 3 10 0 9 -8 -4 -20 -31 -17 -136 4 -169 10 -15
17 -30 14 -32 -9 -9 -36 27 -45 59 -10 37 2 156 19 188 7 14 7 19 0 15 -17
-11 -41 -105 -41 -160 1 -29 9 -66 19 -85 18 -34 18 -35 -2 -69 -20 -33 -20
-35 -2 -68 10 -19 24 -34 31 -34 7 0 14 -10 16 -22 2 -19 10 -24 46 -26 49 -4
50 12 2 23 -29 6 -63 45 -40 45 6 0 22 25 36 55 14 30 29 55 32 56 97 7 136
15 182 35 63 28 120 65 120 77 0 5 -12 0 -27 -11 -91 -64 -201 -95 -261 -74
l-31 10 -36 -76 c-34 -72 -37 -76 -51 -58 -12 17 -10 26 22 85 20 36 67 109
104 162 61 88 65 97 49 107 -25 16 -34 75 -20 137 l12 52 67 22 c71 22 148 28
137 11 -3 -5 -1 -10 5 -10 6 0 8 -5 4 -12 -4 -7 -3 -8 5 -4 6 4 9 13 5 19 -3
7 6 -1 20 -18 48 -55 98 -233 74 -262 -7 -9 -7 -13 2 -13 19 0 6 -140 -19
-214 -32 -90 -118 -218 -144 -212 -7 1 -8 1 -4 -2 5 -2 -3 -17 -18 -32 -15
-16 -26 -33 -23 -40 6 -19 115 87 155 153 73 117 92 184 93 317 0 109 -21 205
-61 280 -45 86 -76 102 -167 88z"/>
<path d="M1647 2022 c-43 -52 -76 -96 -74 -98 2 -3 39 39 82 91 42 53 75 98
73 99 -1 1 -38 -40 -81 -92z"/>
<path d="M1674 2015 c-36 -47 -65 -88 -63 -90 3 -2 35 37 72 86 37 49 65 89
63 89 -3 0 -35 -38 -72 -85z"/>
<path d="M1547 2040 c-4 -14 -6 -38 -6 -55 1 -24 3 -21 10 15 10 49 7 80 -4
40z"/>
<path d="M1704 1945 c-10 -8 -30 -15 -44 -16 -19 -1 -20 -3 -7 -6 21 -5 77 15
77 28 0 12 -3 11 -26 -6z"/>
<path d="M1725 1919 c-27 -13 -55 -18 -86 -16 l-46 4 -62 -96 c-69 -106 -69
-109 17 -110 52 -1 56 17 5 21 -50 4 -49 26 3 107 l39 61 52 0 c50 0 123 25
123 42 0 4 -1 8 -2 7 -2 0 -21 -9 -43 -20z"/>
<path d="M1727 1785 c-15 -14 -35 -25 -43 -25 -8 0 -13 -4 -9 -9 6 -11 65 20
85 45 20 23 -2 16 -33 -11z"/>
<path d="M425 1743 c-81 -17 -197 -61 -253 -96 -95 -61 -114 -125 -67 -226 84
-180 276 -352 440 -394 49 -13 51 -13 99 20 53 36 53 45 -1 12 -24 -15 -43
-19 -66 -15 -46 9 -153 61 -201 99 -45 36 -108 94 -88 83 6 -4 12 -2 12 3 0 6
-9 11 -19 11 -28 0 -37 20 -9 21 19 1 18 3 -7 8 -50 11 -155 185 -155 257 1
55 118 129 285 180 45 13 94 18 200 18 137 1 142 0 216 -32 85 -36 182 -95
179 -107 -2 -4 15 -30 37 -59 67 -86 77 -113 73 -191 -2 -33 -3 -36 -9 -16 -4
15 -17 27 -32 31 -57 16 -69 28 -69 73 0 51 -36 112 -101 172 l-43 40 37 -45
c69 -84 91 -129 91 -185 l-1 -52 78 -37 c53 -26 84 -48 98 -69 20 -32 20 -32
1 -35 -11 -2 -34 8 -52 21 -50 38 -180 100 -305 146 -128 47 -123 45 -123 27
0 -29 -85 -103 -143 -125 -32 -11 -65 -21 -73 -21 -8 0 -13 -4 -10 -9 6 -9 64
5 126 31 19 9 55 36 80 61 42 43 47 46 70 34 14 -7 43 -18 65 -26 22 -7 48
-19 59 -26 18 -13 18 -15 -4 -50 -33 -53 -18 -53 28 2 50 58 65 52 19 -8 -37
-50 -85 -80 -172 -109 -43 -15 -50 -19 -25 -16 71 9 146 45 195 95 48 49 62
53 99 26 18 -14 18 -16 -8 -62 l-27 -48 28 30 c15 17 35 41 44 55 9 14 20 22
24 18 10 -10 -26 -66 -69 -107 -20 -19 -36 -39 -36 -43 0 -19 41 15 82 67 42
55 43 55 60 35 9 -11 18 -15 20 -9 2 6 11 7 22 3 18 -7 17 -8 -5 -17 l-24 -10
23 -5 c15 -2 33 5 48 19 13 12 24 18 25 13 1 -5 5 6 9 25 6 26 4 37 -11 52
-19 19 -19 18 -19 -9 0 -15 3 -32 8 -38 4 -5 -1 -1 -10 9 -10 11 -18 25 -18
32 0 7 -7 15 -15 19 -11 4 -15 21 -15 63 0 43 -7 69 -25 102 -14 23 -25 52
-25 64 0 53 -182 184 -307 222 -62 19 -246 18 -338 -2z"/>
<path d="M1188 1692 c-11 -40 16 -177 32 -167 5 3 5 17 -1 33 -6 15 -14 56
-18 92 -5 46 -8 58 -13 42z"/>
<path d="M380 1602 c43 -41 60 -65 60 -84 0 -24 4 -26 59 -32 104 -12 337 -75
444 -121 14 -6 17 -2 17 21 0 45 -18 97 -42 124 -13 14 -19 20 -14 13 5 -7 5
-13 0 -13 -5 0 -2 -6 6 -13 20 -16 27 -87 8 -87 -8 0 -45 10 -84 23 -63 22
-71 28 -92 68 -13 24 -33 54 -45 67 -27 29 -104 78 -137 87 -14 3 -2 -7 25
-23 68 -41 133 -110 141 -150 4 -19 2 -32 -3 -32 -6 0 -13 13 -16 29 -9 41
-56 92 -119 126 -34 19 -48 23 -39 12 7 -9 19 -17 27 -17 21 0 94 -82 94 -105
l0 -22 -107 16 c-103 16 -108 18 -111 42 -3 25 -33 63 -85 107 -54 44 -45 21
13 -36z"/>
<path d="M310 1621 c0 -5 18 -20 40 -32 21 -12 37 -25 35 -29 -3 -4 4 -15 15
-25 28 -25 25 -2 -4 32 -27 32 -86 69 -86 54z"/>
<path d="M1590 1497 c-49 -24 -79 -32 -120 -32 l-56 0 1 -57 c0 -49 3 -58 18
-58 14 0 16 4 8 18 -5 9 -7 29 -4 44 4 21 12 28 41 33 53 10 138 44 164 65 30
26 25 24 -52 -13z"/>
<path d="M291 1516 c2 -2 33 -6 69 -9 41 -3 54 -2 35 3 -31 8 -112 13 -104 6z"/>
<path d="M310 1485 c80 -17 87 -18 74 -6 -5 5 -38 12 -74 15 l-65 5 65 -14z"/>
<path d="M383 1440 c-19 -23 -50 -44 -75 -53 -30 -11 -36 -16 -20 -16 33 -1
96 33 116 63 20 31 39 32 130 7 92 -26 97 -32 52 -77 -20 -20 -35 -42 -33 -48
5 -11 107 87 107 103 0 5 -12 11 -27 14 -25 4 -142 29 -198 41 -14 4 -29 -6
-52 -34z"/>
<path d="M1252 1443 c-22 -24 -30 -63 -14 -63 10 0 47 78 41 84 -2 3 -14 -7
-27 -21z"/>
<path d="M1284 1425 c-18 -44 -18 -45 6 -45 21 0 28 26 9 32 -9 3 -9 10 0 26
6 12 9 22 6 22 -3 0 -13 -16 -21 -35z"/>
<path d="M1194 1363 c-3 -16 -7 -33 -9 -40 -2 -6 2 -19 10 -30 13 -17 14 -17
24 8 14 38 15 52 7 72 -12 25 -25 21 -32 -10z"/>
<path d="M1246 1324 l-15 -45 27 3 c23 3 26 8 28 40 1 55 -21 56 -40 2z"/>
<path d="M1545 1349 c-27 -10 -71 -18 -97 -19 -38 0 -48 -3 -48 -17 0 -13 3
-14 12 -5 7 7 28 12 48 12 45 0 140 27 140 40 0 6 -1 9 -2 9 -2 -1 -25 -10
-53 -20z"/>
<path d="M1690 1320 c-10 -6 -2 -10 26 -14 53 -8 227 -65 289 -94 90 -43 202
-141 296 -258 35 -44 63 -94 52 -94 -4 0 5 -12 19 -27 31 -34 51 -74 66 -133
20 -75 9 -96 -67 -129 -142 -60 -393 -65 -586 -9 -130 37 -367 180 -349 210 4
6 2 8 -4 4 -30 -19 -136 142 -153 233 -8 44 -8 44 -5 -14 13 -212 307 -442
625 -490 221 -34 471 1 551 75 30 28 32 34 28 80 -18 180 -293 512 -495 597
-108 45 -267 79 -293 63z"/>
<path d="M1226 1254 c-3 -9 -6 -27 -6 -40 0 -13 -6 -24 -13 -24 -8 0 -21 -8
-30 -18 -15 -17 -15 -19 2 -34 17 -15 20 -15 25 -1 4 9 1 22 -5 29 -8 9 -8 14
-1 14 16 0 52 -50 52 -72 0 -11 -4 -17 -9 -14 -5 3 -14 -8 -21 -24 -7 -17 -26
-41 -41 -55 -16 -13 -29 -28 -29 -34 0 -5 -6 -11 -12 -14 -9 -3 -5 -14 13 -33
29 -32 48 -64 60 -103 l7 -26 1 26 c1 15 -14 50 -34 79 l-35 52 41 36 c41 36
79 97 79 128 0 10 -7 25 -16 35 -17 19 -10 44 9 32 7 -4 21 -6 32 -5 32 4 237
-63 377 -124 l127 -55 31 23 c28 20 42 23 108 21 43 -1 102 -9 132 -17 69 -18
76 -14 13 9 -74 26 -203 31 -256 11 -43 -16 -44 -16 -105 14 -33 16 -72 32
-86 36 -14 3 -31 13 -37 21 -10 12 -7 19 17 39 16 13 37 22 47 20 9 -2 17 0
17 5 0 24 -73 -1 -112 -38 -15 -15 -31 -23 -35 -19 -5 4 8 23 29 41 25 24 49
35 80 39 23 3 72 9 108 14 l65 9 -67 2 c-95 2 -163 -15 -204 -51 l-34 -30 -45
17 c-25 10 -45 19 -45 20 0 7 49 53 61 58 11 4 11 6 1 6 -8 1 -33 -15 -56 -34
-55 -45 -83 -45 -34 0 34 31 35 34 15 37 -15 2 -34 -9 -56 -32 -19 -20 -36
-30 -38 -24 -2 8 -20 10 -46 8 -33 -4 -37 -2 -20 5 12 6 27 19 33 30 10 19 8
21 -19 21 -17 0 -31 -6 -35 -16z"/>
<path d="M1060 1128 c-17 -17 -28 -33 -26 -35 11 -11 96 41 96 59 0 19 -42 6
-70 -24z"/>
<path d="M1126 1119 c-13 -20 -13 -24 2 -44 14 -19 18 -20 21 -7 2 9 10 22 19
28 18 13 10 44 -12 44 -8 0 -22 -10 -30 -21z"/>
<path d="M1280 1131 c0 -5 12 -11 28 -13 27 -3 27 -3 27 -83 1 -84 27 -162 72
-212 33 -37 35 -26 3 24 -46 73 -64 144 -53 220 8 61 27 55 21 -7 -6 -57 8
-68 18 -15 6 32 9 35 33 31 26 -5 71 -17 72 -20 0 0 2 -28 5 -61 6 -76 48
-164 109 -230 l47 -50 -36 50 c-71 97 -96 158 -96 230 0 37 4 65 10 65 6 0 10
-25 10 -56 0 -34 4 -53 10 -49 6 3 10 17 10 31 0 14 6 27 13 30 16 6 199 -64
209 -80 4 -6 8 -32 8 -57 0 -56 43 -147 101 -213 23 -26 43 -45 46 -43 2 3
-19 36 -48 73 -69 92 -82 124 -77 199 l4 61 -111 47 c-128 55 -191 77 -310
112 -93 27 -125 31 -125 16z"/>
<path d="M826 1089 c-32 -5 -62 -12 -65 -15 -3 -4 12 -4 34 -1 22 4 72 7 110
8 48 0 64 3 50 9 -24 10 -52 10 -129 -1z"/>
<path d="M1039 1070 c-21 -17 -22 -21 -9 -30 8 -5 18 -10 21 -10 5 0 29 45 29
55 0 11 -19 4 -41 -15z"/>
<path d="M1086 1058 c-18 -26 -21 -48 -5 -48 5 0 7 5 4 10 -3 6 6 15 20 20 23
9 25 13 15 25 -16 19 -16 19 -34 -7z"/>
<path d="M1880 1033 c-29 -9 -60 -27 -60 -33 0 -4 13 -13 28 -19 16 -7 80 -43
143 -81 108 -65 115 -67 133 -52 20 19 122 23 186 9 27 -6 32 -5 22 5 -7 7
-50 14 -101 16 -69 3 -93 1 -113 -12 -24 -15 -27 -14 -131 54 -59 38 -107 74
-107 79 0 19 36 29 95 26 43 -2 51 0 30 5 -35 9 -103 11 -125 3z"/>
<path d="M730 1015 l-45 -14 50 7 c79 11 178 7 205 -8 l25 -14 -33 -8 c-18 -5
-30 -13 -27 -18 3 -5 -10 -21 -29 -35 -27 -21 -47 -27 -94 -28 -33 -1 -58 -5
-56 -8 2 -4 -9 -9 -24 -12 -32 -7 -112 -57 -112 -71 0 -5 8 -2 18 6 54 48 159
78 210 60 27 -9 33 -6 91 48 66 62 75 90 31 97 -76 12 -169 11 -210 -2z"/>
<path d="M551 964 c-34 -43 -46 -94 -46 -194 1 -114 23 -192 70 -248 43 -50
93 -64 220 -63 233 1 410 92 465 238 25 68 25 99 0 167 -22 57 -61 106 -45 56
4 -14 12 -26 16 -28 5 -2 9 -14 9 -26 0 -12 5 -27 12 -34 9 -9 8 -25 -1 -69
-15 -67 -60 -144 -105 -178 -61 -46 -196 -95 -196 -72 0 8 -4 7 -9 -2 -12 -18
-55 -24 -170 -24 -75 1 -97 4 -106 17 -7 9 -15 13 -18 9 -17 -16 -3 17 38 94
25 46 42 83 37 83 -4 0 -27 -38 -50 -85 -23 -47 -46 -85 -52 -85 -12 0 -60 82
-60 103 0 8 6 18 13 21 6 3 5 4 -5 3 -32 -4 -23 18 17 38 26 13 60 20 98 20
55 0 58 2 78 35 12 19 34 51 50 71 24 31 26 38 13 43 -22 8 -85 6 -109 -4 -22
-10 -9 -13 37 -10 40 2 42 -15 9 -72 -29 -52 -30 -52 -75 -49 -29 1 -61 -5
-92 -18 -26 -12 -50 -19 -53 -15 -3 3 -6 45 -6 92 1 73 5 96 28 146 15 32 27
60 27 62 0 12 -21 0 -39 -22z"/>
<path d="M1050 935 c-33 -9 -41 -14 -30 -21 36 -22 65 -69 81 -131 17 -63 18
-64 13 -20 -2 26 -13 70 -24 97 -11 27 -16 51 -12 54 13 8 38 1 56 -13 20 -17
20 -7 0 24 -18 27 -19 28 -84 10z"/>
<path d="M1841 893 c0 -32 4 -67 9 -78 10 -23 13 -10 10 46 -1 21 3 40 9 44 6
3 58 -18 116 -47 l105 -53 0 -43 c0 -51 26 -106 71 -147 l32 -30 -25 35 c-44
60 -60 100 -57 141 4 45 14 37 -178 141 l-93 50 1 -59z"/>
<path d="M945 900 c-69 -59 -105 -96 -154 -162 l-43 -58 18 -26 c11 -15 27
-41 36 -58 9 -17 17 -26 18 -19 0 20 -17 57 -38 79 -22 23 -19 32 32 92 27 30
39 28 75 -13 17 -19 33 -35 36 -35 13 0 2 19 -31 59 -35 41 -41 67 -9 41 35
-29 60 -78 72 -140 l13 -65 -4 60 c-3 55 -25 112 -58 153 -13 15 13 47 55 69
27 14 31 13 53 -8 33 -31 40 -18 11 17 -13 16 -26 35 -28 43 -4 9 -20 1 -54
-29z"/>
<path d="M1390 935 c0 -14 57 -112 69 -119 5 -4 -4 20 -21 51 -32 61 -48 84
-48 68z"/>
<path d="M2136 833 c-13 -14 -2 -23 105 -92 61 -39 108 -68 105 -63 -3 5 -48
37 -100 72 -53 34 -93 66 -91 71 7 10 -10 21 -19 12z"/>
<path d="M2130 784 c1 -5 33 -28 73 -51 40 -24 87 -52 105 -64 17 -11 32 -19
32 -16 0 3 -37 29 -82 58 -46 29 -93 59 -105 67 -13 8 -23 10 -23 6z"/>
<path d="M2130 733 c0 -19 60 -113 72 -113 4 0 5 7 2 15 -4 8 -10 15 -16 15
-5 0 -7 4 -4 9 3 4 -3 16 -14 26 -11 10 -20 29 -20 42 0 12 -4 23 -10 23 -5 0
-10 -8 -10 -17z"/>
<path d="M1911 713 c26 -36 114 -123 122 -123 5 0 -8 18 -29 41 -22 23 -51 54
-66 70 -30 32 -48 39 -27 12z"/>
<path d="M724 642 c-36 -59 -65 -112 -61 -112 7 0 80 121 75 125 -2 2 -8 -4
-14 -13z"/>
</g>
</svg>
